<svg id="레이어_1" data-name="레이어 1" xmlns="http://www.w3.org/2000/svg" xmlns:xlink="http://www.w3.org/1999/xlink" viewBox="0 0 300 300"><defs><style>.cls-1{fill:#3d62ac;}.cls-2{fill:#f7b400;}.cls-3{fill:#3d62ad;}.cls-4{fill:#e52d8a;}.cls-5{fill:#e62e8b;}.cls-6{fill:url(#linear-gradient);}.cls-7{fill:url(#linear-gradient-2);}.cls-8{fill:url(#linear-gradient-3);}.cls-9{fill:url(#linear-gradient-4);}.cls-10{fill:#f8b500;}svg * {fill: #fff!important;}</style><linearGradient id="linear-gradient" x1="73.76" y1="141.68" x2="65.28" y2="159.87" gradientUnits="userSpaceOnUse"><stop offset="0" stop-color="#7791c6"/><stop offset="0.06" stop-color="#6e8ac2"/><stop offset="0.27" stop-color="#5374b7"/><stop offset="0.46" stop-color="#4367af"/><stop offset="0.6" stop-color="#3d62ad"/></linearGradient><linearGradient id="linear-gradient-2" x1="77.28" y1="140.56" x2="104.64" y2="167.91" gradientUnits="userSpaceOnUse"><stop offset="0" stop-color="#f082b9"/><stop offset="0.14" stop-color="#ec5fa6"/><stop offset="0.28" stop-color="#e94497"/><stop offset="0.41" stop-color="#e7348e"/><stop offset="0.5" stop-color="#e62e8b"/></linearGradient><linearGradient id="linear-gradient-3" x1="155.72" y1="124.07" x2="133.26" y2="137.03" gradientUnits="userSpaceOnUse"><stop offset="0" stop-color="#7791c6"/><stop offset="0.03" stop-color="#6e8ac2"/><stop offset="0.16" stop-color="#5374b7"/><stop offset="0.27" stop-color="#4367af"/><stop offset="0.35" stop-color="#3d62ad"/></linearGradient><linearGradient id="linear-gradient-4" x1="92.83" y1="127.32" x2="122.37" y2="152.11" gradientUnits="userSpaceOnUse"><stop offset="0" stop-color="#fcda80"/><stop offset="0.11" stop-color="#fbce57"/><stop offset="0.22" stop-color="#fac331"/><stop offset="0.33" stop-color="#f9bb16"/><stop offset="0.43" stop-color="#f8b706"/><stop offset="0.5" stop-color="#f8b500"/></linearGradient></defs><title>대지 1 사본 2</title><path class="cls-1" d="M211.86,139.42h-5.93V160.9h5.93v-9.5H218v-4.28h-6.1ZM200,150c0-5.67-5-10.28-11.24-10.28S177.5,144.35,177.5,150s5,10.28,11.25,10.28S200,155.7,200,150Zm-16.93,0a5.71,5.71,0,1,1,5.69,6.19A5.95,5.95,0,0,1,183.06,150ZM191,175.38v-.52h20.89V163.43h-27v4h21v3.45h-20.9v2.87c0,6.72,3.65,8.81,9.14,8.81h18.07v-4h-18C191.57,178.56,191,177.6,191,175.38Zm91,3c-2.6,0-4-1.35-4-3.91v-6.13h-6v4.76c0,6.7,3.86,9.46,11.14,9.46h16.06v-4.18Zm10.94-18.23v10.27h5.88v-31h-5.88V156c-2.87,2.87-9,4-13.2,4-3.85,0-7-1.45-7-5.65v-8.57h14.06v-4.18H266.71v12.16c0,8.54,5.27,10.4,12.6,10.4C283.57,164.13,289.18,163.07,292.88,160.19Zm-38-20.77h-5.95v23.84c-3.22,2.61-7.7,4.07-13.37,3.94-3.86-.09-7-1.63-7-6.5v-2.48h13.75V142H222.54v4.19H236.4v7.9H222.54v5c0,9.23,5,12.22,12.6,12.23,5.34,0,11.08-1.63,13.79-3.92v15.18h5.95v-26H261v-4.47h-6.09Z"/><path class="cls-2" d="M.91,144.61c19.86-2.88,38.12,3.48,51.56,10.17a114.42,114.42,0,0,0-8.92-14.86C32.35,138.15,7.36,133.37.91,144.61Z"/><path class="cls-3" d="M92.58,181.16c-.21-.67-.42-1.35-.65-2l-.52-1.56c-.21-.6-.42-1.22-.64-1.83s-.35-1-.54-1.49c-.28-.77-.56-1.53-.85-2.3-.1-.24-.19-.47-.3-.71a22.84,22.84,0,0,1-5.17-.93c-4.36-1.29-8.33-3.77-12.92-6.64L68.31,162c-4.44-2.73-9.26-5.63-15.18-8.57l-1.81-.88c.39.74.78,1.47,1.15,2.21,6.13,3.05,11.26,6.18,15.06,8.51,4.74,2.92,8.84,5.67,13.17,7.45-3.46,3.09-7.19,8-7.9,9.75a1.42,1.42,0,0,0-.29.79c0,2.54,9.31,4.69,18.19,4.69,1.1,0,2.21,0,3.31-.09-.32-1.13-.65-2.25-1-3.38Z"/><path class="cls-1" d="M69.12,140.93l1.3-.27-.13,0,.82-.18c-.37-.43-.73-.87-1.11-1.28l-1.18.23c-9,1.83-13,2.17-20.69,1a36.4,36.4,0,0,1-4.58-.56c.38.56.75,1.12,1.14,1.68A27.36,27.36,0,0,0,48,142C55.91,143.14,60.22,142.73,69.12,140.93Z"/><path class="cls-4" d="M106.88,165.13c-5.47,3.26-10.64,6.34-17.14,6.16l-.64,0c.09.24.18.48.28.71s.22.54.32.82h0c.19.5.37,1,.55,1.49s.36,1,.54,1.49.43,1.23.64,1.83l.52,1.56c.23.67.44,1.35.65,2,.14.45.29.9.43,1.34.35,1.13.68,2.25,1,3.38,7.74-.45,14.88-2.38,14.88-4.6a1.41,1.41,0,0,0-.28-.79c-.74-1.79-4.68-7-8.27-10.08a75.29,75.29,0,0,0,7.32-4c1.2-.71,5.09-2.8,9.39-5l-1.14-1.08C111.77,162.45,108.1,164.4,106.88,165.13Z"/><path class="cls-5" d="M84.53,136.28l1.11-.39c-.54-.33-1.06-.68-1.61-1a134.83,134.83,0,0,1-14,4.35c.38.41.74.85,1.11,1.28C73.89,139.86,78.39,138.45,84.53,136.28Z"/><path class="cls-1" d="M150.48,116.59c-6.48-3.55-15.36-4-21.1,2.5a13.18,13.18,0,0,0-1.62,15.83,12.22,12.22,0,0,0,14.06,5.18c5.05-1.37,7.83-7.59,4.58-11.79-1.74-2.25-5.43-3.27-7.84-1.53a2.9,2.9,0,0,0-1.14,3.64,2.35,2.35,0,0,0,2.08,1.27,3.46,3.46,0,0,0,1.21-.33c2.12-.75,3.08,2.51,1.32,3.48a4.28,4.28,0,0,1-1.11.46,8,8,0,0,1-9-3.18c-1.9-2.93-1-7.14,1.19-9.62,3.53-4,10-3.78,14.33-1.11s7.81,8.21,4.53,15.85c-2.65,6.14-10.52,7.91-18.27,7.93a36,36,0,0,1-4-.25c.85.55,1.69,1.13,2.52,1.69.53,0,1,0,1.52,0,10.36,0,17.15-3.08,19.63-8.83,3.67-8.52-.23-14.74-5.11-17.72-4.71-2.88-12-3.36-16.22,1.4-2.44,2.76-3.74,7.69-1.34,11.42a9.58,9.58,0,0,0,10.69,3.81,5.66,5.66,0,0,0,1.47-.62,3.24,3.24,0,0,0,1.66-2.91,3.91,3.91,0,0,0-.33-1.57,3,3,0,0,0-3.9-1.68l-.29.1a1.59,1.59,0,0,1-.42.14.86.86,0,0,1-.76-.47c-.37-.71.29-1.45.69-1.74,1.75-1.26,4.55-.38,5.79,1.23a5.33,5.33,0,0,1,.76,5.09,6.78,6.78,0,0,1-4.54,4.36c-5.06,1.37-9.7-.32-12.43-4.55s-2.1-10,1.49-14.05c5.23-5.91,13.45-5.36,19.26-2.17a16.61,16.61,0,0,1,6.67,21.39,17.62,17.62,0,0,1-9.24,8.89,58,58,0,0,1-7.64,2.4l-1,.27-.2.05c.52.38,1,.74,1.58,1.13a60.25,60.25,0,0,0,7.83-2.47,19.14,19.14,0,0,0,10-9.68A18.18,18.18,0,0,0,150.48,116.59Z"/><path class="cls-2" d="M136.79,151.31a55.17,55.17,0,0,0-7.51,2.43c-3.26,1.37-10.12,4.88-12.91,6.33-.15.08-.31.15-.46.24l1.14,1.08c4.84-2.5,10.19-5.18,12.8-6.28A71.71,71.71,0,0,1,139.92,152c-.53-.39-1.06-.75-1.58-1.13Z"/><path class="cls-2" d="M90.29,134.22c7.56,3.13,26.1,10.74,39.17,12.18.63.07,1.23.12,1.82.17l.86,0c-.83-.56-1.67-1.14-2.52-1.69-12.6-1.39-30.26-8.55-39.29-12.3-1.61.59-3.85,1.4-6.3,2.26.55.33,1.07.68,1.61,1Z"/><path class="cls-6" d="M68.31,162,71,163.68c4.59,2.87,8.56,5.35,12.92,6.64a22.84,22.84,0,0,0,5.17.93c-.2-.54-.42-1.07-.64-1.6-.41-1-.84-2.06-1.28-3.09-.19-.41-.38-.84-.56-1.26-.45-1-.9-2-1.36-3-.22-.46-.45-.92-.68-1.38-.46-.93-.92-1.85-1.4-2.76-.27-.52-.57-1-.85-1.54-.46-.84-.92-1.69-1.4-2.51-.34-.58-.71-1.16-1.06-1.74s-.9-1.48-1.38-2.2-.88-1.3-1.33-2-.84-1.26-1.29-1.87c-.56-.77-1.15-1.53-1.75-2.29-.36-.45-.7-.92-1.07-1.37-.62-.76-1.27-1.49-1.92-2.22l-.82.18.13,0-1.3.27c-8.9,1.8-13.21,2.21-21.13,1a27.36,27.36,0,0,1-3.3-.36,118.81,118.81,0,0,1,6.63,11l1.81.88C59.05,156.39,63.87,159.29,68.31,162Z"/><path class="cls-7" d="M84.53,136.28c-6.14,2.17-10.64,3.58-13.42,4.23.65.73,1.31,1.46,1.92,2.22.37.45.71.92,1.07,1.37.6.76,1.19,1.52,1.75,2.29.45.61.87,1.24,1.29,1.87s.91,1.29,1.33,2,.93,1.47,1.38,2.2.72,1.16,1.06,1.74c.48.82.94,1.67,1.4,2.51.28.51.58,1,.85,1.54.48.91.94,1.83,1.4,2.76.23.46.46.92.68,1.38.46,1,.91,2,1.36,3,.18.42.37.85.56,1.26.45,1,.87,2.06,1.28,3.09.11.27.23.53.34.81h0c.11.26.21.53.3.79l.64,0c6.5.18,11.67-2.9,17.14-6.16,1.22-.73,4.89-2.68,9-4.82-9.53-9-19.21-17.56-30.27-24.42Z"/><path class="cls-8" d="M138.54,150.85l1-.27a58,58,0,0,0,7.64-2.4,17.62,17.62,0,0,0,9.24-8.89,16.61,16.61,0,0,0-6.67-21.39c-5.81-3.19-14-3.74-19.26,2.17-3.59,4.07-4.2,9.85-1.49,14.05s7.37,5.92,12.43,4.55a6.78,6.78,0,0,0,4.54-4.36,5.33,5.33,0,0,0-.76-5.09c-1.24-1.61-4-2.49-5.79-1.23-.4.29-1.06,1-.69,1.74a.86.86,0,0,0,.76.47,1.59,1.59,0,0,0,.42-.14l.29-.1a3,3,0,0,1,3.9,1.68,3.91,3.91,0,0,1,.33,1.57,3.24,3.24,0,0,1-1.66,2.91,5.66,5.66,0,0,1-1.47.62,9.58,9.58,0,0,1-10.69-3.81c-2.4-3.73-1.1-8.66,1.34-11.42,4.21-4.76,11.51-4.28,16.22-1.4,4.88,3,8.78,9.2,5.11,17.72-2.48,5.75-9.27,8.81-19.63,8.83-.48,0-1,0-1.52,0q3.13,2.08,6.2,4.29Z"/><path class="cls-2" d="M136.79,151.31l1.55-.41q-3.06-2.21-6.2-4.29l-.86,0Q134,149,136.79,151.31Z"/><path class="cls-9" d="M132.14,146.61l-.86,0c-.59,0-1.19-.1-1.82-.17-13.07-1.44-31.61-9.05-39.17-12.18l-4.65,1.67c11.06,6.86,20.74,15.38,30.27,24.42.15-.09.31-.16.46-.24,2.79-1.45,9.65-5,12.91-6.33a55.17,55.17,0,0,1,7.51-2.43l1.55-.41Q135.28,148.7,132.14,146.61Z"/><path class="cls-10" d="M90.33,120.55a3.8,3.8,0,0,0-3.8,3.79c0,4.14,3,7.49,3.8,8.28.79-.79,3.79-4.14,3.79-8.28A3.79,3.79,0,0,0,90.33,120.55Z"/></svg>