<svg id="레이어_1" data-name="레이어 1" xmlns="http://www.w3.org/2000/svg" xmlns:xlink="http://www.w3.org/1999/xlink" viewBox="0 0 300 300"><defs><style>.cls-1{fill:#0d0d0d;}.cls-2{fill:url(#linear-gradient);}.cls-3{fill:url(#linear-gradient-2);}.cls-4{fill:url(#linear-gradient-3);}.cls-5{fill:url(#linear-gradient-4);}.cls-6{fill:url(#linear-gradient-5);}.cls-7{fill:url(#linear-gradient-6);}.cls-8{fill:url(#linear-gradient-7);}.cls-9{fill:url(#linear-gradient-8);}.cls-10{fill:url(#linear-gradient-9);}svg * {fill: #fff!important;}</style><linearGradient id="linear-gradient" x1="37.54" y1="136.07" x2="37.82" y2="165.45" gradientUnits="userSpaceOnUse"><stop offset="0" stop-color="#ec1b23"/><stop offset="1" stop-color="#8a0002"/></linearGradient><linearGradient id="linear-gradient-2" x1="13.53" y1="136.3" x2="13.81" y2="165.68" xlink:href="#linear-gradient"/><linearGradient id="linear-gradient-3" x1="29.21" y1="136.15" x2="29.49" y2="165.53" xlink:href="#linear-gradient"/><linearGradient id="linear-gradient-4" x1="52.44" y1="135.93" x2="52.72" y2="165.31" xlink:href="#linear-gradient"/><linearGradient id="linear-gradient-5" x1="45.15" y1="136" x2="45.43" y2="165.38" xlink:href="#linear-gradient"/><linearGradient id="linear-gradient-6" x1="68.16" y1="135.78" x2="68.44" y2="165.16" xlink:href="#linear-gradient"/><linearGradient id="linear-gradient-7" x1="25.33" y1="136.19" x2="25.61" y2="165.57" xlink:href="#linear-gradient"/><linearGradient id="linear-gradient-8" x1="57.67" y1="135.88" x2="57.95" y2="165.26" xlink:href="#linear-gradient"/><linearGradient id="linear-gradient-9" x1="41.52" y1="161.72" x2="41.52" y2="186.61" gradientUnits="userSpaceOnUse"><stop offset="0" stop-color="gray"/><stop offset="1" stop-color="#333"/></linearGradient></defs><title>대지 1 사본 3</title><path class="cls-1" d="M219,149.68h4.8v-5H193.58v5h4.85v22.44H193v5.12h32v-5.12h-6Zm-6.82,22.44h-7V149.68h7Zm-91.85,7.16h6.76V143h-6.76Zm-8-23.08c0-7-6.42-12.8-14-12.8s-14,5.78-14,12.8S90.74,169,98.31,169,112.36,163.28,112.36,156.2Zm-21.27,0a7.23,7.23,0,1,1,7.22,7.09A7,7,0,0,1,91.09,156.2Zm53.15,10.72v-4.35h21.49v-5.11H144.24V150h21.49v-5.54H137.88v24a10.83,10.83,0,0,0,2.4,5.53,8.68,8.68,0,0,0,7,3h18.62v-5.46H148.64C144.58,171.3,144.24,166.92,144.24,166.92Zm31.84-9.72h-5.92s-1.77-.35-1.24,1.24l1.83,3.37a2.73,2.73,0,0,0,2.31,1.25h2.84V180h6.92V143h-6.66Zm67.33,0H237.5l-.09-14.2h-6.65v37h6.92V163.06h2.84a2.72,2.72,0,0,0,2.3-1.25l1.83-3.37C245.19,156.85,243.41,157.2,243.41,157.2Zm45,17.69V154a12.56,12.56,0,0,0-2.77-6.38,10,10,0,0,0-8-3.5H253.22v5.6H276a5.16,5.16,0,0,1,5.08,4.52v3h-27.7v5.53h27.7v12H249v5.42h44.65v-5.3Zm-189,4.84-.26-3.59H92.68v4.49c.42,6.33,4.49,8.78,4.61,8.89,2,1.85,6.92,1.73,6.92,1.73h22.66v-5.63H106A6.08,6.08,0,0,1,99.47,179.73Z"/><path class="cls-2" d="M38.19,121.54a16.22,16.22,0,0,1-6.61-5.75c-.54-.93-1.27-2.5-1-3.57a2.29,2.29,0,0,1,3.24-1.5,7.11,7.11,0,0,1,2.82,3.68c1.07-7.34,9.52-7.48,7-.72C42.25,117.41,39.23,117.8,38.19,121.54Z"/><path class="cls-3" d="M13.07,149.85c-3.53-2.62-7.9-6.36-6.49-10.37a1.9,1.9,0,0,1,2.75-1.12,4.64,4.64,0,0,1,2,2.23,18.66,18.66,0,0,1,.86,2,6.44,6.44,0,0,1,.67-2.14c.71-1.39,2.62-4.83,6-3.78.89.28,4.18,2.9-.42,7.5C17.06,145.61,13.68,147.24,13.07,149.85Z"/><path class="cls-4" d="M33.32,160.81c5.62-3,6.66-13.24,4.62-15.93-2.35-3.27-5.72.08-5.09,5.91-5.35-9.37-19-5.16-10.16,2.55C26,156.18,31.78,156.54,33.32,160.81Z"/><path class="cls-5" d="M47.24,129.14c-3.59-3.29-2.37-11.07-.34-12.66,2.37-2,4.21,1.16,2.61,5.35,5.77-5.89,15.08-.13,7,3.85C53.57,127.15,49.2,126.28,47.24,129.14Z"/><path class="cls-6" d="M44,144.87c-5-2.51-7.14-9-6-11.34,1.33-2.77,4.62-.72,4.94,3.74,2-8.48,13.62-5.89,8,1.12C48.93,141,45.17,142,44,144.87Z"/><path class="cls-7" d="M65,146.16c-4.11-4.89-8.88-12.43-6.29-17,2.25-3.74,7-.58,6,6,5.1-10.63,19.26-6.18,11.23,3C71.65,143,66.17,142.7,65,146.16Z"/><path class="cls-8" d="M31.54,138.13c4.55-4.08,3.13-13.85.61-15.89-2.94-2.49-5.31,1.4-3.36,6.67-7.15-7.47-18.92-.38-8.87,4.73C23.62,135.53,29.12,134.51,31.54,138.13Z"/><path class="cls-9" d="M52.23,157.05c-2.41-5.9-2.84-14.17,1.83-14.39,2.07,0,5.28,2.51,2.79,8.56,3.11-3.12,8.17-2.72,8.3.81s-4.08,5.16-7.09,4.92C54.5,156.67,54,156,52.23,157.05Z"/><path class="cls-10" d="M44,152.52c-6.73,10.79-8.52,24.73-8.7,38.45a21.51,21.51,0,0,0,6.38,0A107,107,0,0,1,41,177.49c0-1.32.11-2.74.18-4.06a47.41,47.41,0,0,1,2.28-11.79c.54-1.62.92-2.6,1.24-3.45a35.44,35.44,0,0,1,3.1-6.15c-1.35-.32-2.94-.81-3.69.38Z"/></svg>