<svg id="레이어_1" data-name="레이어 1" xmlns="http://www.w3.org/2000/svg" viewBox="0 0 300 300"><defs><style>.cls-1{fill:#003477;}.cls-2{fill:#61a60e;}svg * {fill: #fff!important;}</style></defs><title>대지 1</title><path class="cls-1" d="M134.85,138.76c-5.65,0-10.63,1.84-14,5.28-3.85,3.8-6,9.77-6,16.81s2.11,13,6,16.82c3.36,3.45,8.34,5.32,14,5.32s10.69-1.87,14.05-5.32c3.78-3.8,5.9-9.78,5.9-16.82s-2.12-13-5.9-16.81c-3.36-3.44-8.4-5.28-14.05-5.28m8.1,34.3h0a10.08,10.08,0,0,1-8.1,3.7,10,10,0,0,1-8-3.7c-2.06-2.56-3.15-6.83-3.15-12.21s1.09-9.58,3.15-12.21a9.91,9.91,0,0,1,8-3.63,10.06,10.06,0,0,1,8.1,3.63c2.07,2.63,3.13,6.83,3.13,12.21S145,170.5,143,173.06Z"/><path class="cls-1" d="M244.15,144c-3.38-3.44-8.4-5.28-14.05-5.28s-10.63,1.84-14,5.28c-3.82,3.8-5.92,9.77-5.92,16.81s2.1,13,5.92,16.82c3.39,3.45,8.36,5.32,14,5.32s10.67-1.87,14.05-5.32c3.79-3.8,5.89-9.78,5.89-16.82s-2.1-13-5.89-16.81m-6,29h0a10.65,10.65,0,0,1-16.14,0c-2.05-2.56-3.14-6.83-3.14-12.21s1.09-9.58,3.14-12.21a10.79,10.79,0,0,1,16.14,0c2.07,2.63,3.12,6.83,3.12,12.21S240.26,170.5,238.19,173.06Z"/><path class="cls-1" d="M95.18,182a4,4,0,0,1-1.07-3V163.68l14.31-24h-9.8c.71.7.78,1.83-.08,3.18l-7.75,13.43C84.27,144.5,84.28,144.17,83.1,142c-.92-1.63-1.7-2.33-3.44-2.33H71.93a16.37,16.37,0,0,1,2.57,3.61l11.41,20.27V179a4,4,0,0,1-1.07,3Z"/><path class="cls-1" d="M168.45,182a4,4,0,0,0,1.07-3V142.65a4,4,0,0,0-1.07-3h14c6.73,0,12.59,3.24,12.59,9.53,0,2.66-1.23,6.43-4.33,8.1,3.77,1.44,7.77,4.92,7.77,10.81a13.13,13.13,0,0,1-5.1,10.41c-2.7,2-5.82,3.43-10.93,3.43h-14m9.27-26.32a13.66,13.66,0,0,0,6-.72,4.53,4.53,0,0,0,2.88-4.38c0-2.54-2.23-4.78-5.46-4.78a10.91,10.91,0,0,0-3.4.43v9.45m9.17,19.2c2.42-1.56,3-3.83,3-6.2,0-4.64-4.08-6.77-8-6.77a29.75,29.75,0,0,0-4.15.25v13.54C180.42,176.44,184.74,176.25,186.89,174.86Z"/><path class="cls-1" d="M35.07,179A4,4,0,0,1,34,182H44.34a4,4,0,0,1-1.07-3V162.51l12,17.14c1.11,1.62,2,2.33,3.71,2.33h8.29a20.16,20.16,0,0,1-3-3.62l-13.55-19.2L64.61,139.7H54.41c.53.69.6,1.55-.39,3.22L43.27,158.41V142.65a4,4,0,0,1,1.07-3H34a4,4,0,0,1,1.07,3Z"/><path class="cls-2" d="M263.31,81.78c-3.85-3.9-10.23-3.23-14,.76-4.89,5.14-8.7,7.06-13.23,6.86-6.33-.27-9.45-5.16-12.7-11.34-3.38-6.45-8.56-10-15-10-10.17,0-16.28,8.24-16.28,17.43,0,14.14,9.95,22.59,16.83,26.16A41.17,41.17,0,0,0,226.63,116a53.07,53.07,0,0,1-2.43,11h11.64a52.64,52.64,0,0,1-2.47-11.37c17.06-2.22,25.15-10,29.59-17.34a18.68,18.68,0,0,0,3-9.61,9.5,9.5,0,0,0-2.69-6.87m-54.88,8.85A6,6,0,1,1,214,84.31,6,6,0,0,1,208.43,90.63Z"/><polygon class="cls-1" points="190.81 211.75 185.83 211.75 185.83 226.64 176.33 226.64 176.33 230.54 205.85 230.54 205.85 226.64 190.81 226.64 190.81 211.75"/><path class="cls-1" d="M197.43,222.85h3.24c1.23-6.25,2.08-14,2.59-19.28.28-2.82.29-4.31-2.25-4.31H178.83v3.91h18.6Z"/><path class="cls-1" d="M147.67,212.07h21.59V199.13H144.58V209c0,1.82.79,3.1,3.09,3.1m16-9v5.13H150.14V203Z"/><path class="cls-1" d="M150.82,221.21h-5.55v7.67c0,1.82.78,3.1,3.08,3.1h21v-3.9H150.82Z"/><polygon class="cls-1" points="141.81 218.68 154.72 218.68 154.72 224.76 160.28 224.76 160.28 218.68 172.03 218.68 172.03 214.78 141.81 214.78 141.81 218.68"/><polygon class="cls-1" points="90.6 212.8 85.63 212.8 85.63 226.64 82.23 226.64 82.23 212.8 77.25 212.8 77.25 226.64 70.51 226.64 70.51 230.54 101.27 230.54 101.27 226.64 90.6 226.64 90.6 212.8"/><path class="cls-1" d="M93.4,222.85h3.25c1.22-6.25,2.08-14,2.59-19.28.28-2.82.29-4.31-2.25-4.31H73.85v3.91H93.4Z"/><polygon class="cls-1" points="124.32 219.98 118.78 219.98 118.78 226.64 106.07 226.64 106.07 230.54 136.84 230.54 136.84 226.64 124.32 226.64 124.32 219.98"/><path class="cls-1" d="M113.47,217.88h15.95c2.3,0,3.09-1.28,3.09-3.1V198.94H127v6.42h-11v-6.42h-5.56v15.84c0,1.82.79,3.1,3.09,3.1M127,209.25v5.28h-11v-5.28Z"/></svg>