<svg id="레이어_1" data-name="레이어 1" xmlns="http://www.w3.org/2000/svg" viewBox="0 0 300 300"><defs><style>.cls-1{fill:#1f8ee6;}svg * {fill: #fff!important;}</style></defs><title>대지 1 사본</title><path class="cls-1" d="M298.67,169.41H182.28a98.13,98.13,0,0,0-18.37,1.4,27.4,27.4,0,0,0-13.55,6.42l-.35.31-.34-.31a27.43,27.43,0,0,0-13.56-6.42c-6.71-1.24-18.22-1.4-18.33-1.4H1.43c-1,0-1.43.39-1.43,1.43v4.82c0,1,.37,1.4,1.35,1.42H118.57c2.58,0,11.36.09,16.19,1.23a21.31,21.31,0,0,1,12.45,8.48h5.6a21.35,21.35,0,0,1,12.45-8.48c4.69-1.11,13.37-1.23,16.88-1.23H298.57c1,0,1.43-.38,1.43-1.42v-4.83C300,169.83,299.63,169.44,298.67,169.41Z"/><path class="cls-1" d="M60.29,158H73c6.52,0,11.31-1.66,14.24-4.93S91.66,144,91.66,136s-1.5-13.81-4.47-17.1-7.78-4.93-14.34-4.93H60.29c-1,0-1.43.39-1.43,1.43v41.2C58.86,157.6,59.25,158,60.29,158Zm10-10.38V123.79h2.25c2.74,0,4.73.9,5.91,2.66s1.67,4.8,1.67,9.5-.52,7.8-1.6,9.49-3.1,2.67-5.86,2.67H70.28Z"/><path class="cls-1" d="M235.48,158h8.57c1,0,1.42-.39,1.42-1.43V136.64l1,2,8.46,17.75a2.39,2.39,0,0,0,2.28,1.56h9.08c.59,0,.76-.2.85-.39a1.22,1.22,0,0,0-.17-1.19L255.86,134l-.12-.25.13-.23,10.44-18a1.26,1.26,0,0,0,.18-1.19c-.05-.12-.16-.37-.81-.37h-9a2.6,2.6,0,0,0-2.36,1.6l-7.88,14-.95,1.69V115.35c0-1-.39-1.43-1.42-1.43h-8.57c-1,0-1.43.39-1.43,1.43v41.2C234.05,157.59,234.44,158,235.48,158Z"/><path class="cls-1" d="M272.35,156.62a32.75,32.75,0,0,0,12.09,2,18.33,18.33,0,0,0,11-3.17c2.8-2.05,4.23-5.3,4.23-9.66a15.53,15.53,0,0,0-.7-4.91,9.21,9.21,0,0,0-2.29-3.59,23.56,23.56,0,0,0-3.21-2.68c-1-.69-2.55-1.57-4.54-2.63-4.09-2.07-6-4-6-6a2.66,2.66,0,0,1,1.45-2.61,8.16,8.16,0,0,1,3.56-.6,22.79,22.79,0,0,1,6.91,1,3,3,0,0,0,.78.12c.52,0,.87-.17,1-1l1.1-6.05c.1-.58,0-1.33-1.22-1.87a27.47,27.47,0,0,0-10.27-1.68c-5.16,0-9,1-11.43,2.93s-3.58,5.06-3.58,9.38a16.85,16.85,0,0,0,.83,5.49,10.35,10.35,0,0,0,2.42,4,22,22,0,0,0,3.29,2.73,35.88,35.88,0,0,0,4,2.21,31.13,31.13,0,0,1,4.73,2.86,3.57,3.57,0,0,1,1.43,2.78c0,2.34-2.21,3.53-6.56,3.53A20.73,20.73,0,0,1,274,147.8a2.73,2.73,0,0,0-.91-.2c-.26,0-.7,0-.9,1.05l-1.1,6.12c-.17.75,0,1,0,1.1A2.92,2.92,0,0,0,272.35,156.62Z"/><path class="cls-1" d="M197.84,154a13.07,13.07,0,0,0,5.29,3.62,25.26,25.26,0,0,0,14.81,0,12.94,12.94,0,0,0,5.29-3.62,16.66,16.66,0,0,0,3.41-7,45.19,45.19,0,0,0,1.16-11,45.19,45.19,0,0,0-1.16-11,16.56,16.56,0,0,0-3.41-7,12.87,12.87,0,0,0-5.29-3.63,25.26,25.26,0,0,0-14.81,0,13,13,0,0,0-5.29,3.63,16.55,16.55,0,0,0-3.4,7,44.61,44.61,0,0,0-1.17,11,44.61,44.61,0,0,0,1.17,11A16.66,16.66,0,0,0,197.84,154Zm8.2-28a4.62,4.62,0,0,1,4.5-3,4.68,4.68,0,0,1,4.52,3c.8,1.76,1.2,5.14,1.2,10s-.4,8.27-1.2,10a4.68,4.68,0,0,1-4.52,3,4.62,4.62,0,0,1-4.5-3c-.77-1.77-1.16-5.14-1.16-10S205.27,127.69,206,125.92Z"/><rect class="cls-1" x="40.06" y="113.92" width="11.42" height="44.07" rx="1.43" ry="1.43"/><rect class="cls-1" x="98.41" y="113.92" width="11.42" height="44.07" rx="1.43" ry="1.43"/><path class="cls-1" d="M159,154a13.07,13.07,0,0,0,5.29,3.62,25.26,25.26,0,0,0,14.81,0A13,13,0,0,0,184.4,154a16.66,16.66,0,0,0,3.41-7A45.19,45.19,0,0,0,189,136a45.19,45.19,0,0,0-1.16-11,16.56,16.56,0,0,0-3.41-7,12.87,12.87,0,0,0-5.29-3.63,25.26,25.26,0,0,0-14.81,0A12.87,12.87,0,0,0,159,118a16.68,16.68,0,0,0-3.41,7,45.14,45.14,0,0,0-1.16,11,45.14,45.14,0,0,0,1.16,11A16.78,16.78,0,0,0,159,154Zm8.2-28a4.61,4.61,0,0,1,4.5-3,4.68,4.68,0,0,1,4.52,3c.79,1.76,1.19,5.14,1.19,10s-.4,8.27-1.19,10a4.68,4.68,0,0,1-4.52,3,4.61,4.61,0,0,1-4.5-3c-.77-1.77-1.16-5.14-1.16-10S166.44,127.69,167.21,125.92Z"/><path class="cls-1" d="M118.52,158h15.71c10.41,0,15.47-4.21,15.47-12.89a11.76,11.76,0,0,0-1.71-6.62,8.61,8.61,0,0,0-4.41-3.47l-.61-.22-1.21-.42,1.17-.52.58-.26c3.34-1.49,5-4.42,5-8.7,0-4.13-1.2-7-3.55-8.54s-6.43-2.42-11.79-2.42H118.52c-1,0-1.43.39-1.43,1.43v41.2C117.09,157.6,117.48,158,118.52,158Zm9.73-27.06V122.7h4.56a5.05,5.05,0,0,1,3.52,1,4.34,4.34,0,0,1,1.11,3.29,4.49,4.49,0,0,1-1.13,3.35,5,5,0,0,1-3.56,1.08h-4.5Zm0,17.78v-9.26h5.08a5.38,5.38,0,0,1,3.84,1.18,5,5,0,0,1,1.24,3.7,5.25,5.25,0,0,1-1.12,3.72c-.76.78-2,1.16-3.9,1.16h-5.14Z"/><path class="cls-1" d="M2.39,158h8.5c1,0,1.43-.39,1.43-1.43v-12h3.17l.14.28,5.67,11.8A2.37,2.37,0,0,0,23.64,158h8.63c.72,0,.84-.25.88-.35a1.46,1.46,0,0,0-.2-1.23l-6.89-13.05-.24-.47.47-.23.24-.11c4.54-2.17,6.84-6.53,6.84-13,0-5.8-1.33-9.89-3.95-12.18s-7-3.48-13.06-3.48h-14c-1,0-1.43.38-1.43,1.43v41.2C1,157.59,1.35,158,2.39,158Zm9.93-22.93V123.53h3.91c2.1,0,3.52.45,4.36,1.38s1.23,2.43,1.23,4.67c0,2.09-.39,3.57-1.21,4.52s-2.31,1.45-4.38,1.45H12.32Z"/></svg>