<svg id="레이어_1" data-name="레이어 1" xmlns="http://www.w3.org/2000/svg" viewBox="0 0 300 300"><defs><style>.cls-1{fill:#8aa0ae;}.cls-2{fill:#d22f3d;}.cls-3{fill:#231815;}.cls-4{fill:#0077b0;}svg * {fill: #fff!important;}</style></defs><title>대지 1 사본 4</title><polygon class="cls-1" points="0 132.04 9.93 132.04 15.15 141.48 23.61 131.94 33.36 131.94 18.2 149.15 15.35 166.48 6.98 166.48 10.04 148.96 0 132.04"/><polygon class="cls-1" points="37.19 131.94 31.78 166.67 51.46 166.57 52.44 159.59 41.62 159.59 42.6 152.71 53.33 152.9 54.6 145.71 43.79 145.71 44.97 139.12 56.28 139.12 57.17 131.94 37.19 131.94"/><path class="cls-1" d="M81.46,139.71s-.09-2.17-5.6-2.56c0,0-4.13.1-4.92,3.35,0,0-1.38,4.43,6.59,5.61A8.52,8.52,0,0,1,84,154.66s-.48,6.1-4.62,9.06a17.24,17.24,0,0,1-10.53,3.44s-5.41.89-11.8-3.35L61.59,157s3.35,4.82,8.27,3.74c0,0,4.52-.48,5.41-4.71,0,0,1.08-3.94-6.89-4.53,0,0-6.89-.78-6.59-8.66,0,0,.69-6.5,4.43-8.66,0,0,2.94-3,9.15-3.15,0,0,4.43-.68,10.23,2.76Z"/><path class="cls-2" d="M118.86,102s1.67-7.47,6.3-7.57c0,0,6.18-.52,4.52,7.47,0,0-2.24,6.67-3.25,10.45,0,0-1.84,5.87-2.07,6.51,0,0-.46,2.28-4.24,2.22,0,0-5,0-4.83-5.18a54.68,54.68,0,0,1,1.45-6.63Z"/><path class="cls-2" d="M142.79,102.07s1.68-7.48,6.31-7.57c0,0,6.19-.52,4.52,7.47,0,0-2.24,6.67-3.24,10.44,0,0-1.85,5.89-2.08,6.52,0,0-.47,2.28-4.25,2.22,0,0-5,0-4.82-5.18a54.24,54.24,0,0,1,1.45-6.63Z"/><path class="cls-3" d="M99,143.84l9.12.06s-.75-5.94,5-5.94c0,0,3.9-.45,4.07,4.95a11.06,11.06,0,0,1-4.07,7.57l-7.68,7.67L95,167.28h28l.52-6.8H111.91a96.42,96.42,0,0,0,8.56-7.85s5.41-4.19,5.17-9.89a12.51,12.51,0,0,0-2.5-7.73s-2.15-3.85-9.08-3.79c0,0-7.15.06-10.81,4.88A35.18,35.18,0,0,0,99,143.84Z"/><path class="cls-1" d="M168.48,163.38s0-6.18,5.73-6.07a4.39,4.39,0,0,1,4.64,4.35s-.69,5.74-5.89,5.74A4.3,4.3,0,0,1,168.48,163.38Z"/><path class="cls-1" d="M211.43,156.28l-1.61,9.57a22,22,0,0,1-8.41,1.6s-7.91,0-12.49-5.72c0,0-3.38-4.42-3.44-9.57,0,0,.23-9.56,6.59-14.94a20.35,20.35,0,0,1,6.07-4.36,17.9,17.9,0,0,1,7.79-1.88s5.15-.17,8.7,2.28l-1.2,8.2a10.21,10.21,0,0,0-8-3.27,12.26,12.26,0,0,0-8.64,4.47s-3.44,3.55-3.15,8.08a8.65,8.65,0,0,0,2.63,6.92s1.43,1.55,6.07,1.83C202.38,159.49,209.59,159.78,211.43,156.28Z"/><polygon class="cls-1" points="256.19 166.65 264.1 166.59 271.08 145.75 276.47 166.59 279.62 166.59 291.98 145.46 291.98 166.65 299.94 166.65 300 131.84 291.93 131.84 281 151.25 276.07 131.9 268.57 131.9 256.19 166.65"/><path class="cls-4" d="M80,180.82s-3.13-4,2.36-6.92A4.64,4.64,0,0,1,89,175.46a53.92,53.92,0,0,0,10.45,12.81s7.31,6.52,25.33,7.17c0,0,19.2,1.57,29.78-8.22A45.87,45.87,0,0,0,165,174.42s2.74-3,6.66-.13c0,0,4.18,3,.26,8.22a61.69,61.69,0,0,1-13.44,14s-11.1,9.14-33.44,9a51.75,51.75,0,0,1-28.33-7.31S86.94,193.62,80,180.82Z"/><path class="cls-3" d="M153.55,153.76l3.37-21h-11L127.84,154.8l-.86,5.49h17l-.8,7.28h8.13l.86-7.28,4.75-.1.8-6.43h-4.17m-8.28.1-7.8-.1,10.8-14.19Z"/><path class="cls-1" d="M256.09,144.78a13.93,13.93,0,0,0-2.59-6.93,16.75,16.75,0,0,0-8.35-6.36,20.3,20.3,0,0,0-11.45,0c-7.85,1.43-14.09,10.7-14.09,10.7-3,3.9-3,10.09-3,10.09-.06,5.73,4.12,10,4.12,10,3.78,5.73,13.11,5.11,13.11,5.11a23.07,23.07,0,0,0,12-3.56c3.72-2.4,7.27-8.07,7.27-8.07,3.67-6,3-11,3-11M243.38,156s-3.67,3.85-8.48,3.85c0,0-6,.4-8.48-4.87,0,0-.74-1.09-.85-5,0,0-.17-3.5,3.21-7.67,0,0,3.83-4.59,9.27-4.3,0,0,5.33.06,8.08,4.17a12.56,12.56,0,0,1,1.37,5S248.06,151.48,243.38,156Z"/></svg>